<?xml version="1.0" encoding="UTF-8"?>
<svg width="29px" height="29px" viewBox="0 0 29 29" version="1.1" xmlns="http://www.w3.org/2000/svg" xmlns:xlink="http://www.w3.org/1999/xlink">
    <title>Icon@3x</title>
    <g id="Page-1" stroke="none" stroke-width="1" fill="none" fill-rule="evenodd">
        <g id="Icon@3x">
            <rect id="Rectangle" fill="#FF6700" fill-rule="nonzero" x="0" y="0" width="29" height="29" rx="6"></rect>
            <path d="M14.35001,5.5 C17.1114,5.5 19.35001,7.73858 19.35001,10.5 C19.35001,12.4801 18.199,14.1914 16.5295,15.0013 L16.641,15.0004 L16.641,23.1355 C16.641,23.2415 16.6073,23.3442 16.5458,23.429 L16.4946,23.489 L15.3523,24.6313 C14.9923,24.9913 14.4259,25.0195 14.0335,24.7154 L13.9393,24.6324 L12.7086,23.4057 C12.5369,23.2303 12.5206,22.9606 12.6578,22.7673 L12.7164,22.6987 L13.3259,22.1025 C13.5013,21.9308 13.5235,21.6616 13.3909,21.4652 L13.3338,21.3953 L12.3638,20.4016 C12.2035,20.2157 12.2041,19.9456 12.3531,19.7612 L12.4159,19.6964 L13.3027,18.9299 C13.4763,18.7563 13.4955,18.4869 13.3606,18.292 L13.3027,18.2228 L12.5008,17.4209 C12.4258,17.3459 12.3771,17.2495 12.3606,17.146 L12.3544,17.0674 L12.3544,15.0859 C10.5862,14.3153 9.35001,12.552 9.35001,10.5 C9.35001,7.73858 11.5886,5.5 14.35001,5.5 Z M14.375,7.5 C13.6156,7.5 13,8.11561 13,8.875 C13,9.63439 13.6156,10.25 14.375,10.25 C15.1344,10.25 15.75,9.63439 15.75,8.875 C15.75,8.11561 15.1344,7.5 14.375,7.5 Z" id="Shape" fill="#FFFFFF"></path>
        </g>
    </g>
</svg>