<?xml version="1.0" encoding="UTF-8"?>
<svg width="29px" height="29px" viewBox="0 0 29 29" version="1.1" xmlns="http://www.w3.org/2000/svg" xmlns:xlink="http://www.w3.org/1999/xlink">
    <title>Icon@3x-3</title>
    <g id="Page-1" stroke="none" stroke-width="1" fill="none" fill-rule="evenodd">
        <g id="Icon@3x-3">
            <rect id="Rectangle" fill="#FF2FBE" fill-rule="nonzero" x="0" y="0" width="29" height="29" rx="6"></rect>
            <path d="M24.75,8 C24.75,5.92893 23.0711,4.25 21,4.25 C18.9289,4.25 17.25,5.92893 17.25,8 C17.25,10.0711 18.9289,11.75 21,11.75 C23.0711,11.75 24.75,10.0711 24.75,8 Z M11.75,8 C11.75,5.92893 10.0711,4.25 8,4.25 C5.9289,4.25 4.25,5.92893 4.25,8 C4.25,10.0711 5.9289,11.75 8,11.75 C10.0711,11.75 11.75,10.0711 11.75,8 Z M24.75,22 C24.75,19.92893 23.0711,18.25 21,18.25 C18.9289,18.25 17.25,19.92893 17.25,22 C17.25,24.0711 18.9289,25.75 21,25.75 C23.0711,25.75 24.75,24.0711 24.75,22 Z M17.75,15 C17.75,12.92893 16.0711,11.25 14,11.25 C11.9289,11.25 10.25,12.92893 10.25,15 C10.25,17.0711 11.9289,18.75 14,18.75 C16.0711,18.75 17.75,17.0711 17.75,15 Z M16,6.75 L10.25,6.75 L10.0504,6.7549 C7.93397,6.85892 6.25,8.6078 6.25,10.75 L6.25,18.75 L6.2549,18.9496 C6.35892,21.066 8.1078,22.75 10.25,22.75 L18.25,22.75 L18.4496,22.7451 C20.566,22.6411 22.25,20.8922 22.25,18.75 L22.25,13 L21.25,13 L21.25,18.75 L21.2449,18.9263 C21.1537,20.5011 19.8477,21.75 18.25,21.75 L10.25,21.75 L10.0737,21.7449 C8.49892,21.6537 7.25,20.3477 7.25,18.75 L7.25,10.75 L7.25509,10.5737 C7.34634,8.99892 8.65232,7.75 10.25,7.75 L16,7.75 L16,6.75 Z" id="Shape" fill="#FFFFFF"></path>
        </g>
    </g>
</svg>