<?xml version="1.0" encoding="UTF-8"?>
<svg width="31px" height="21px" viewBox="0 0 31 21" version="1.1" xmlns="http://www.w3.org/2000/svg" xmlns:xlink="http://www.w3.org/1999/xlink">
    <title>chatTab@3x</title>
    <g id="Page-1" stroke="none" stroke-width="1" fill="none" fill-rule="evenodd">
        <g id="chatTab@3x" fill="#FF6700">
            <path d="M12,0 C18.6274,0 24,4.25263 24,9.49851 C24,14.7444 17.6406,18.8634 10.3681,18.3883 C7.70922,21.1085 4.66783,21.0465 4.51201,20.8586 C4.35619,20.6707 4.7425,20.5054 5.38145,19.5059 C6.0204,18.5064 6.0204,17.4176 4.78304,16.6474 L4.7034,16.6027 L4.62171,16.5619 C1.54057,15.1153 0,12.7609 0,9.49851 C0,3.65377 5.37258,0 12,0 Z M19.7804,0.502277 C26.0021,0.603488 31,4.07282 31,9.57383 C31,12.5898 29.6173,14.7935 26.852,16.1849 L26.4926,16.3604 L26.4163,16.4031 C25.2305,17.1389 25.2305,18.1789 25.8428,19.1338 C26.4551,20.0886 26.8253,20.2465 26.676,20.426 C26.5267,20.6055 23.612,20.6647 21.0639,18.0662 C20.5147,18.1019 19.971,18.1104 19.4353,18.0933 C23.0637,16.2416 25.5,13.1378 25.5,9.49851 C25.5,5.92825 23.4481,2.80265 20.2847,0.805168 L19.9941,0.626706 L19.7804,0.502277 Z" id="Shape"></path>
        </g>
    </g>
</svg>