<?xml version="1.0" encoding="UTF-8"?>
<svg width="26px" height="26px" viewBox="0 0 26 26" version="1.1" xmlns="http://www.w3.org/2000/svg" xmlns:xlink="http://www.w3.org/1999/xlink">
    <title>Icon@3x</title>
    <g id="Page-1" stroke="none" stroke-width="1" fill="none" fill-rule="evenodd">
        <g id="Icon@3x" transform="translate(0.65, 0.65)" fill="#FF6700">
            <path d="M21.618206,3.800456 C19.262506,1.386566 16.040706,4.4408921e-16 12.598806,4.4408921e-16 C9.158076,4.4408921e-16 5.936296,1.386566 3.580596,3.800456 C3.349156,4.037606 3.353786,4.417476 3.590946,4.648916 C3.828096,4.880356 4.207966,4.875726 4.439406,4.638566 C6.571536,2.453776 9.484806,1.199996 12.598806,1.199996 L12.945106,1.205146 C15.928806,1.294146 18.706206,2.534686 20.759406,4.638566 C20.990806,4.875726 21.370706,4.880356 21.607906,4.648916 C21.845006,4.417476 21.849606,4.037606 21.618206,3.800456 Z M21.599996,12.599996 C21.599996,7.629436 17.570606,3.599996 12.599996,3.599996 C7.629436,3.599996 3.599996,7.629436 3.599996,12.599996 C3.599996,17.570606 7.629436,21.599996 12.599996,21.599996 C17.570606,21.599996 21.599996,17.570606 21.599996,12.599996 Z M0.483526,9.131726 C0.574566,8.813106 0.906656,8.628616 1.225276,8.719656 C1.543896,8.810696 1.728386,9.142786 1.637346,9.461406 C1.348256,10.473106 1.199996,11.526406 1.199996,12.600006 C1.199996,17.811106 4.726616,22.321406 9.694806,23.626606 C10.015306,23.710806 10.206806,24.038906 10.122606,24.359406 C10.038406,24.679906 9.710306,24.871506 9.389906,24.787206 C3.897446,23.344306 4.4408921e-16,18.359806 4.4408921e-16,12.600006 C4.4408921e-16,11.414606 0.163876,10.250406 0.483526,9.131726 Z M23.989306,8.762586 C24.308206,8.672756 24.639606,8.858506 24.729406,9.177466 C25.040606,10.282206 25.200006,11.430806 25.200006,12.600006 C25.200006,18.400806 21.247306,23.411306 15.701406,24.815306 C15.380206,24.896606 15.053906,24.702106 14.972506,24.380906 C14.891206,24.059606 15.085706,23.733306 15.406906,23.652006 C20.423406,22.382006 24.000006,17.848306 24.000006,12.600006 C24.000006,11.541006 23.855806,10.501906 23.574406,9.502806 C23.484606,9.183806 23.670306,8.852406 23.989306,8.762586 Z M12.600006,4.799996 C8.292176,4.799996 4.799996,8.292176 4.799996,12.600006 C4.799996,16.907806 8.292176,20.400006 12.600006,20.400006 C16.907806,20.400006 20.400006,16.907806 20.400006,12.600006 C20.400006,8.292176 16.907806,4.799996 12.600006,4.799996 Z" id="Shape"></path>
        </g>
    </g>
</svg>