<?xml version="1.0" encoding="UTF-8"?>
<svg width="25px" height="25px" viewBox="0 0 25 25" version="1.1" xmlns="http://www.w3.org/2000/svg" xmlns:xlink="http://www.w3.org/1999/xlink">
    <title>Icon@3x</title>
    <g id="Page-1" stroke="none" stroke-width="1" fill="none" fill-rule="evenodd">
        <g id="Icon@3x" transform="translate(0.2, 0.2)" fill="#FF6700">
            <path d="M20.844388,5.351279 L20.737988,5.228999 L21.250888,4.880439 L21.332488,4.784119 C21.562088,4.454009 21.525488,4.023599 21.250988,3.749029 C20.938588,3.436609 20.431988,3.436609 20.119588,3.749029 L19.587988,4.075999 L19.448488,3.954629 C18.851088,3.455509 18.199988,3.018679 17.505188,2.654519 L17.322988,2.562999 L17.532588,2.027729 L17.569088,1.919999 C17.666088,1.525909 17.471088,1.132499 17.108788,0.978729 C16.702088,0.806089 16.232488,0.995839 16.059788,1.402549 L15.838988,1.949999 L15.684288,1.898649 C14.951488,1.669719 14.185788,1.515459 13.396388,1.445249 L13.192988,1.430999 L13.199988,0.800047 L13.191488,0.686591 C13.126788,0.285917 12.793588,-4.4408921e-16 12.399988,-4.4408921e-16 C11.958188,-4.4408921e-16 11.599988,0.358172 11.599988,0.8 L11.599988,1.429999 L11.402188,1.444649 C10.610488,1.515839 9.843088,1.670919 9.109708,1.900939 L8.928998,1.959999 L8.753588,1.412119 L8.703218,1.310139 C8.493148,0.962879 8.077038,0.822619 7.712148,0.970049 C7.302498,1.135559 7.104578,1.601819 7.270088,2.011479 L7.457998,2.570999 L7.289028,2.656949 C6.596028,3.021239 5.946708,3.457349 5.351288,3.955639 L5.215998,4.071999 L4.780438,3.649069 L4.684118,3.567549 C4.354008,3.337869 3.923598,3.374469 3.649038,3.649029 C3.336618,3.961449 3.336618,4.467989 3.649038,4.780409 L4.083998,5.201999 L3.954628,5.351489 C3.455518,5.948879 3.018678,6.600019 2.654518,7.294859 L2.564998,7.470999 L2.027728,7.267379 L1.920008,7.230889 C1.525908,7.133869 1.132498,7.328929 0.978728,7.691189 C0.806098,8.097899 0.995848,8.567539 1.402548,8.740179 L1.952998,8.949999 L1.898688,9.115639 C1.650878,9.908849 1.490548,10.740649 1.429568,11.600049 L0.800048,11.600049 L0.686591,11.608549 C0.285917,11.673149 8.04911693e-16,12.006449 8.04911693e-16,12.400049 C8.04911693e-16,12.841849 0.358172,13.200049 0.799998,13.200049 L1.429998,13.199049 L1.444478,13.395849 C1.515348,14.185649 1.669688,14.951249 1.898558,15.682949 L1.953998,15.850049 L1.402608,16.059749 L1.301478,16.111949 C0.957928,16.328049 0.824958,16.746549 0.978728,17.108849 C1.151368,17.515549 1.621018,17.705249 2.027718,17.532649 L2.564998,17.328049 L2.653808,17.504949 C3.018588,18.199949 3.455558,18.851049 3.955028,19.447949 L4.077998,19.589049 L3.649068,20.019549 L3.567548,20.115849 C3.337878,20.445949 3.374468,20.876449 3.649038,21.150949 C3.961448,21.463349 4.467988,21.463349 4.780408,21.150949 L5.207998,20.721049 L5.351488,20.845349 C5.948878,21.344449 6.600018,21.781349 7.294858,22.145449 L7.477998,22.237049 L7.267378,22.772249 L7.230888,22.879949 C7.133868,23.274049 7.328938,23.667549 7.691188,23.821249 C8.097898,23.993949 8.567548,23.804149 8.740178,23.397449 L8.956998,22.848049 L9.115638,22.901349 C9.848188,23.130149 10.613688,23.284549 11.403388,23.355249 L11.599988,23.369049 L11.599988,23.999949 L11.608488,24.113449 C11.673188,24.514049 12.006488,24.800049 12.399988,24.800049 C12.841788,24.800049 13.199988,24.441849 13.199988,24.000049 L13.198988,23.369049 L13.396988,23.355449 C14.188888,23.284249 14.956588,23.129149 15.690188,22.899149 L15.864988,22.840049 L16.046388,23.387849 L16.096788,23.489849 C16.306888,23.837149 16.722988,23.977349 17.087888,23.829949 C17.497488,23.664449 17.695388,23.198149 17.529888,22.788549 L17.336988,22.230049 L17.510988,22.143049 C18.203988,21.778749 18.853288,21.342649 19.448688,20.844349 L19.582988,20.727049 L20.019588,21.150949 L20.115888,21.232449 C20.445988,21.462149 20.876388,21.425549 21.150988,21.150949 C21.463388,20.838549 21.463388,20.332049 21.150988,20.019549 L20.714988,19.598049 L20.845388,19.448549 C21.344488,18.851149 21.781288,18.199949 22.145488,17.505149 L22.228988,17.337049 L22.772288,17.532649 L22.879988,17.569149 C23.274088,17.666149 23.667488,17.471049 23.821288,17.108849 C23.993888,16.702149 23.804188,16.232449 23.397488,16.059849 L22.843988,15.854049 L22.847688,15.851249 C23.106288,15.068049 23.279188,14.245949 23.355288,13.396349 L23.368988,13.199049 L23.999988,13.200049 L24.113388,13.191449 C24.514088,13.126849 24.799988,12.793549 24.799988,12.400049 C24.799988,11.958149 24.441788,11.600049 23.999988,11.600049 L23.368988,11.599049 L23.355388,11.402149 C23.284188,10.610449 23.129088,9.843049 22.899088,9.109709 L22.847988,8.955999 L23.387888,8.753589 L23.489888,8.703219 C23.837088,8.493149 23.977388,8.077039 23.829988,7.712149 C23.664488,7.302499 23.198188,7.104579 22.788488,7.270089 L22.230988,7.462999 L22.143088,7.289029 C21.778788,6.596029 21.342688,5.946709 20.844388,5.351279 Z M12.162488,2.602819 L12.399988,2.599999 L12.801188,2.608059 L13.198288,2.632049 L13.768388,2.694779 L14.033988,2.735599 L14.299888,2.783839 C18.799688,3.664789 22.199988,7.635299 22.199988,12.400049 L22.194288,12.737349 L22.174088,13.118649 L22.148088,13.414749 L22.105988,13.762949 L22.041488,14.164949 C21.993088,14.431049 21.933988,14.693449 21.864488,14.951649 L21.748388,15.349349 L21.683788,15.547049 L21.578288,15.842549 C20.404088,18.971749 17.675388,21.340849 14.332788,22.009449 L14.033988,22.064349 L13.849988,22.093449 L13.442788,22.145149 L13.310588,22.158249 L12.993788,22.182349 L12.674288,22.196249 L12.399988,22.200049 L11.806488,22.182349 L11.582788,22.166449 L11.199088,22.127149 L10.742988,22.060549 L10.546288,22.024949 L10.145188,21.939349 C9.614398,21.814349 9.100268,21.646249 8.606698,21.438849 L8.196698,21.255349 L7.868728,21.091749 L7.600978,20.946549 L7.414188,20.838749 L7.161788,20.684049 L6.947268,20.544149 L6.650528,20.337049 C5.186958,19.275049 4.028568,17.818149 3.331818,16.122749 L3.182978,15.737549 L3.116218,15.547049 L3.035748,15.298649 L2.953948,15.019249 C2.902108,14.831949 2.855688,14.642349 2.814878,14.450649 L2.728168,13.989049 L2.705978,13.846249 L2.686668,13.709049 L2.638788,13.277949 C2.613118,12.988749 2.599998,12.695949 2.599998,12.400049 C2.599998,11.494849 2.722728,10.618249 2.952448,9.786129 L3.072758,9.384309 L3.160448,9.125389 L3.297818,8.761119 C3.779048,7.558479 4.491718,6.473449 5.380768,5.561109 L5.663998,5.281949 L6.031958,4.950729 C6.225858,4.784819 6.426318,4.626339 6.632888,4.475749 L6.989058,4.227939 L7.161788,4.115929 L7.491998,3.915699 L7.749118,3.771769 L8.028078,3.626829 L8.372848,3.463029 C8.605148,3.358189 8.842258,3.262139 9.083768,3.175309 L9.457288,3.049499 L9.658388,2.988649 L9.907088,2.919889 L10.243088,2.838129 L10.546288,2.775069 L10.893788,2.715029 L11.139888,2.680259 L11.424888,2.647899 L11.640488,2.628999 L12.162488,2.602819 Z M17.867688,12.999849 L21.179888,12.999449 C20.871788,17.580049 17.058588,21.200049 12.399988,21.200049 C11.137588,21.200049 9.937388,20.934149 8.852068,20.455549 L8.529978,20.305549 L10.185188,17.435849 C10.862788,17.734349 11.612088,17.900049 12.399988,17.900049 C15.156088,17.900049 17.438688,15.872749 17.838088,13.227949 L17.867688,12.999849 Z M9.147158,7.964569 L7.490718,5.095569 L7.250828,5.262959 C5.039158,6.861409 3.599998,9.462639 3.599998,12.400049 C3.599998,15.442249 5.143788,18.123949 7.490718,19.704449 L9.147158,16.835449 L8.955788,16.688349 C7.702248,15.680249 6.899998,14.133749 6.899998,12.400049 C6.899998,10.579549 7.784478,8.965609 9.147158,7.964569 Z M12.399988,8.099999 C14.774788,8.099999 16.699988,10.025149 16.699988,12.400049 C16.699988,14.774849 14.774788,16.700049 12.399988,16.700049 C10.025188,16.700049 8.099998,14.774849 8.099998,12.400049 C8.099998,10.025149 10.025188,8.099999 12.399988,8.099999 Z M21.158688,11.541349 C20.726988,7.084169 16.970388,3.599999 12.399988,3.599999 C11.011388,3.599999 9.697918,3.921629 8.529978,4.494439 L10.185188,7.364139 L10.442588,7.258509 C11.050688,7.026859 11.710588,6.899999 12.399988,6.899999 C15.234488,6.899999 17.568188,9.044219 17.867588,11.799149 L21.179788,11.799549 L21.158688,11.541349 Z" id="Shape"></path>
        </g>
    </g>
</svg>